<svg width="36" height="69" viewBox="0 0 36 69" fill="none" xmlns="http://www.w3.org/2000/svg">
<path d="M17.9551 33.083C26.2393 33.083 32.9551 26.3673 32.9551 18.083C32.9551 9.79874 26.2393 3.08301 17.9551 3.08301C9.67081 3.08301 2.95508 9.79874 2.95508 18.083C2.95508 26.3673 9.67081 33.083 17.9551 33.083Z" stroke="#2031CE" stroke-width="3" stroke-linecap="round" stroke-linejoin="round"/>
<path d="M18.0003 24.4283C21.5045 24.4283 24.3453 21.5875 24.3453 18.0833C24.3453 14.579 21.5045 11.7383 18.0003 11.7383C14.496 11.7383 11.6553 14.579 11.6553 18.0833C11.6553 21.5875 14.496 24.4283 18.0003 24.4283Z" fill="#2031CE" stroke="#2031CE" stroke-width="1.5" stroke-miterlimit="10" stroke-linecap="round" stroke-linejoin="round"/>
<path fill-rule="evenodd" clip-rule="evenodd" d="M18 42.25C18.5523 42.25 19 42.6977 19 43.25L19 46.3333C19 46.8856 18.5523 47.3333 18 47.3333C17.4477 47.3333 17 46.8856 17 46.3333L17 43.25C17 42.6977 17.4477 42.25 18 42.25ZM18 51.5C18.5523 51.5 19 51.9477 19 52.5L19 58.6667C19 59.219 18.5523 59.6667 18 59.6667C17.4477 59.6667 17 59.219 17 58.6667L17 52.5C17 51.9477 17.4477 51.5 18 51.5ZM18 63.8333C18.5523 63.8333 19 64.281 19 64.8333L19 67.9167C19 68.469 18.5523 68.9167 18 68.9167C17.4477 68.9167 17 68.469 17 67.9167L17 64.8333C17 64.281 17.4477 63.8333 18 63.8333Z" fill="#BDBDBD"/>
</svg>
