<svg width="186" height="181" viewBox="0 0 186 181" fill="none" xmlns="http://www.w3.org/2000/svg">
<circle cx="95.5" cy="91" r="70.5" fill="url(#paint0_linear_254_1870)"/>
<circle cx="178.466" cy="28" r="7.5" fill="url(#paint1_linear_254_1870)"/>
<circle cx="20.0332" cy="10.5" r="10" fill="url(#paint2_linear_254_1870)"/>
<circle cx="10.0332" cy="133.5" r="5" fill="url(#paint3_linear_254_1870)"/>
<circle cx="165.533" cy="161" r="2.5" fill="url(#paint4_linear_254_1870)"/>
<path fill-rule="evenodd" clip-rule="evenodd" d="M100.715 89.1147H107.519C108.551 89.1147 109.361 88.2617 109.361 87.2331C109.361 86.1795 108.551 85.3516 107.519 85.3516H100.715C99.683 85.3516 98.8724 86.1795 98.8724 87.2331C98.8724 88.2617 99.683 89.1147 100.715 89.1147ZM115.601 76.0717C117.099 76.0717 118.082 76.5986 119.064 77.7526C120.047 78.9066 120.219 80.5624 119.998 82.0651L117.664 98.5225C117.222 101.686 114.569 104.017 111.449 104.017H84.6497C81.3827 104.017 78.6806 101.46 78.4104 98.1487L76.1505 70.8008L72.4413 70.1486C71.4587 69.9729 70.7709 68.9945 70.9429 67.991C71.1148 66.9649 72.0728 66.2851 73.08 66.4381L78.9385 67.3387C79.7737 67.4918 80.3878 68.1917 80.4615 69.0447L80.9282 74.6643C81.0019 75.4696 81.6406 76.0717 82.4266 76.0717H115.601ZM84.2562 107.982C82.1928 107.982 80.5224 109.688 80.5224 111.795C80.5224 113.877 82.1928 115.583 84.2562 115.583C86.295 115.583 87.9654 113.877 87.9654 111.795C87.9654 109.688 86.295 107.982 84.2562 107.982ZM111.891 107.982C109.828 107.982 108.157 109.688 108.157 111.795C108.157 113.877 109.828 115.583 111.891 115.583C113.93 115.583 115.6 113.877 115.6 111.795C115.6 109.688 113.93 107.982 111.891 107.982Z" fill="white"/>
<circle cx="106.533" cy="5" r="2.5" fill="url(#paint5_linear_254_1870)"/>
<circle cx="62.5332" cy="177" r="3.5" fill="url(#paint6_linear_254_1870)"/>
<circle cx="122.033" cy="171.5" r="1" fill="url(#paint7_linear_254_1870)"/>
<circle cx="170.533" cy="111" r="2.5" fill="url(#paint8_linear_254_1870)"/>
<circle cx="1.0332" cy="75.5" r="1" fill="url(#paint9_linear_254_1870)"/>
<defs>
<linearGradient id="paint0_linear_254_1870" x1="166" y1="161.5" x2="-1.77734" y2="112.855" gradientUnits="userSpaceOnUse">
<stop stop-color="#1424B3"/>
<stop offset="1" stop-color="#E61414"/>
</linearGradient>
<linearGradient id="paint1_linear_254_1870" x1="185.966" y1="35.5" x2="168.118" y2="30.3249" gradientUnits="userSpaceOnUse">
<stop stop-color="#1424B3"/>
<stop offset="1" stop-color="#E61414"/>
</linearGradient>
<linearGradient id="paint2_linear_254_1870" x1="30.0332" y1="20.5" x2="6.235" y2="13.5999" gradientUnits="userSpaceOnUse">
<stop stop-color="#1424B3"/>
<stop offset="1" stop-color="#E61414"/>
</linearGradient>
<linearGradient id="paint3_linear_254_1870" x1="15.0332" y1="138.5" x2="3.1341" y2="135.05" gradientUnits="userSpaceOnUse">
<stop stop-color="#1424B3"/>
<stop offset="1" stop-color="#E61414"/>
</linearGradient>
<linearGradient id="paint4_linear_254_1870" x1="168.033" y1="163.5" x2="162.084" y2="161.775" gradientUnits="userSpaceOnUse">
<stop stop-color="#1424B3"/>
<stop offset="1" stop-color="#E61414"/>
</linearGradient>
<linearGradient id="paint5_linear_254_1870" x1="109.033" y1="7.5" x2="103.084" y2="5.77498" gradientUnits="userSpaceOnUse">
<stop stop-color="#1424B3"/>
<stop offset="1" stop-color="#E61414"/>
</linearGradient>
<linearGradient id="paint6_linear_254_1870" x1="66.0332" y1="180.5" x2="57.7038" y2="178.085" gradientUnits="userSpaceOnUse">
<stop stop-color="#1424B3"/>
<stop offset="1" stop-color="#E61414"/>
</linearGradient>
<linearGradient id="paint7_linear_254_1870" x1="123.033" y1="172.5" x2="120.653" y2="171.81" gradientUnits="userSpaceOnUse">
<stop stop-color="#1424B3"/>
<stop offset="1" stop-color="#E61414"/>
</linearGradient>
<linearGradient id="paint8_linear_254_1870" x1="173.033" y1="113.5" x2="167.084" y2="111.775" gradientUnits="userSpaceOnUse">
<stop stop-color="#1424B3"/>
<stop offset="1" stop-color="#E61414"/>
</linearGradient>
<linearGradient id="paint9_linear_254_1870" x1="2.0332" y1="76.5" x2="-0.346617" y2="75.81" gradientUnits="userSpaceOnUse">
<stop stop-color="#1424B3"/>
<stop offset="1" stop-color="#E61414"/>
</linearGradient>
</defs>
</svg>
