<svg xmlns="http://www.w3.org/2000/svg" width="32" height="26" viewBox="0 0 32 26" fill="none">
  <path d="M1 11V19.0003C1 20.8672 1 21.8001 1.36331 22.5131C1.68289 23.1403 2.19245 23.6508 2.81966 23.9704C3.532 24.3333 4.46499 24.3333 6.32818 24.3333H25.6718C27.535 24.3333 28.4667 24.3333 29.179 23.9704C29.8062 23.6508 30.3175 23.1403 30.637 22.5131C31 21.8008 31 20.8692 31 19.006V11M1 11V7.66667M1 11H31M1 7.66667V6.33366C1 4.46682 1 3.5327 1.36331 2.81966C1.68289 2.19245 2.19245 1.68289 2.81966 1.36331C3.5327 1 4.46682 1 6.33366 1H25.667C27.5338 1 28.466 1 29.179 1.36331C29.8062 1.68289 30.3175 2.19245 30.637 2.81966C31 3.532 31 4.46499 31 6.32818V7.66667M1 7.66667H31M7.66667 17.6667H14.3333M31 11V7.66667" stroke="#090909" stroke-width="2" stroke-linecap="round" stroke-linejoin="round"/>
</svg>