<svg width="99" height="64" viewBox="0 0 99 64" fill="none" xmlns="http://www.w3.org/2000/svg">
<line x1="8.5" y1="55.5" x2="54.5" y2="55.5" stroke="#34C582" stroke-linecap="round" stroke-dasharray="6 6"/>
<path d="M72 30C70.75 30 69.6875 29.5625 68.8125 28.6875C67.9375 27.8125 67.5 26.75 67.5 25.5H64.5V9C64.5 8.175 64.794 7.469 65.382 6.882C65.969 6.294 66.675 6 67.5 6H88.5V12H93L97.5 18V25.5H94.5C94.5 26.75 94.0625 27.8125 93.1875 28.6875C92.3125 29.5625 91.25 30 90 30C88.75 30 87.6875 29.5625 86.8125 28.6875C85.9375 27.8125 85.5 26.75 85.5 25.5H76.5C76.5 26.75 76.0625 27.8125 75.1875 28.6875C74.3125 29.5625 73.25 30 72 30ZM72 27C72.425 27 72.7815 26.856 73.0695 26.568C73.3565 26.281 73.5 25.925 73.5 25.5C73.5 25.075 73.3565 24.719 73.0695 24.432C72.7815 24.144 72.425 24 72 24C71.575 24 71.2185 24.144 70.9305 24.432C70.6435 24.719 70.5 25.075 70.5 25.5C70.5 25.925 70.6435 26.281 70.9305 26.568C71.2185 26.856 71.575 27 72 27ZM90 27C90.425 27 90.781 26.856 91.068 26.568C91.356 26.281 91.5 25.925 91.5 25.5C91.5 25.075 91.356 24.719 91.068 24.432C90.781 24.144 90.425 24 90 24C89.575 24 89.219 24.144 88.932 24.432C88.644 24.719 88.5 25.075 88.5 25.5C88.5 25.925 88.644 26.281 88.932 26.568C89.219 26.856 89.575 27 90 27ZM88.5 19.5H94.875L91.5 15H88.5V19.5Z" fill="#2031CE"/>
<path fill-rule="evenodd" clip-rule="evenodd" d="M81 45.667C76.3977 45.667 72.6667 49.3981 72.6667 54.0003C72.6667 58.6026 76.3977 62.3337 81 62.3337C85.6023 62.3337 89.3333 58.6026 89.3333 54.0003C89.3333 49.3981 85.6023 45.667 81 45.667ZM84.6121 52.5912C84.6786 52.5152 84.7293 52.4266 84.761 52.3308C84.7928 52.2349 84.8051 52.1336 84.7972 52.0329C84.7892 51.9322 84.7612 51.8341 84.7148 51.7444C84.6684 51.6546 84.6045 51.5751 84.5269 51.5104C84.4493 51.4458 84.3596 51.3973 84.2629 51.3678C84.1663 51.3383 84.0648 51.3285 83.9643 51.3388C83.8638 51.3492 83.7664 51.3795 83.6778 51.4281C83.5892 51.4766 83.5113 51.5424 83.4485 51.6215L80.1909 55.5299L78.5053 53.8435C78.3624 53.7055 78.171 53.6292 77.9724 53.6309C77.7738 53.6326 77.5838 53.7123 77.4433 53.8527C77.3028 53.9932 77.2232 54.1832 77.2214 54.3818C77.2197 54.5805 77.2961 54.7718 77.4341 54.9147L79.7068 57.1874C79.7812 57.2618 79.8704 57.3199 79.9685 57.3579C80.0666 57.396 80.1716 57.4132 80.2767 57.4084C80.3818 57.4036 80.4848 57.377 80.5791 57.3302C80.6734 57.2834 80.7568 57.2175 80.8242 57.1367L84.6121 52.5912Z" fill="#2031CE"/>
</svg>
