<svg width="99" height="64" viewBox="0 0 99 64" fill="none" xmlns="http://www.w3.org/2000/svg">
<line x1="8.5" y1="55.5" x2="54.5" y2="55.5" stroke="#34C582" stroke-linecap="round" stroke-dasharray="6 6"/>
<path d="M70.2 8.34938C71.6906 8.34938 72.8494 7.14 72.8494 5.7C72.8494 4.26 71.6906 3 70.2 3C68.7094 3 67.5005 4.20937 67.5005 5.64938C67.5005 7.08938 68.7094 8.34938 70.2 8.34938ZM91.7494 8.34938C93.24 8.34938 94.3987 7.14 94.3987 5.7C94.3987 4.26 93.2906 3 91.7494 3C90.2587 3 89.0494 4.20937 89.0494 5.64938C89.0494 7.08938 90.3094 8.34938 91.7494 8.34938ZM96.9469 17.5294L95.9062 13.0221C95.6461 11.8971 94.8589 10.9476 93.7969 10.4976C92.7562 10.0476 91.6537 10.1179 90.6401 10.6804C89.3677 11.433 88.4115 12.621 87.9334 14.0205L87.3005 15.9263L86.4512 16.5028L86.3494 11.1C86.3494 10.6078 85.9415 10.2 85.4494 10.2H76.5C76.0078 10.2 75.6 10.6078 75.6 11.1V16.4494L74.6932 15.8728L74.0604 13.9671C73.5893 12.5608 72.6328 11.3796 71.3537 10.6269C70.3834 10.0644 69.237 9.99413 68.1969 10.4441C67.1349 10.8941 66.3474 11.8436 66.0875 12.9686L65.0542 17.4759C64.7941 18.6009 65.0964 19.7963 65.8625 20.6681L69.6454 24.9364L70.2146 30.1468C70.3125 31.1138 71.0887 31.8 72 31.8C72.0703 31.8 72.1265 31.793 72.1969 31.7859C73.188 31.6805 73.8984 30.7948 73.7859 29.8031L73.2234 24.5859C73.139 23.8547 72.8297 23.1729 72.3448 22.6172L69.9052 19.8609L70.8964 15.9021L71.2831 17.0484C71.5081 17.7516 71.9508 18.3703 72.6613 18.8839L75.53 20.712C75.7901 20.8737 76.2118 20.9722 76.5003 20.9933H85.4497C85.738 20.9722 86.1596 20.8737 86.42 20.712L89.2888 18.8839C89.9986 18.3706 90.4419 17.7589 90.6669 17.0484L91.0536 15.9021L92.0453 19.8609L89.6057 22.6172C89.1206 23.1727 88.8115 23.8547 88.7271 24.5859L88.1646 29.8031C88.0521 30.7943 88.7693 31.6808 89.7537 31.7859C89.8706 31.7944 89.9269 31.8 89.9494 31.8C90.8561 31.8 91.5862 31.1183 91.7353 30.1969L92.3045 24.9864L96.1369 20.7188C96.9019 19.8469 97.2056 18.6544 96.9469 17.5294V17.5294ZM65.6021 23.1431L63.1271 29.3306C62.7615 30.252 63.2115 31.2994 64.1329 31.6723C65.075 32.0379 66.1084 31.5739 66.474 30.6666L68.0276 26.778L67.9151 25.7514L65.6021 23.1431ZM98.8706 29.3306L96.4462 23.1431L94.1327 25.752L94.0202 26.7786L95.5738 30.6671C95.805 31.3725 96.48 31.8 97.1494 31.8C97.3742 31.8 97.5992 31.7578 97.817 31.6734C98.7862 31.2994 99.2362 30.2531 98.8706 29.3306Z" fill="#2031CE"/>
<path fill-rule="evenodd" clip-rule="evenodd" d="M81 45.667C76.3977 45.667 72.6667 49.3981 72.6667 54.0003C72.6667 58.6026 76.3977 62.3337 81 62.3337C85.6023 62.3337 89.3334 58.6026 89.3334 54.0003C89.3334 49.3981 85.6023 45.667 81 45.667ZM84.6121 52.5912C84.6787 52.5152 84.7293 52.4266 84.7611 52.3308C84.7929 52.2349 84.8051 52.1336 84.7972 52.0329C84.7893 51.9322 84.7613 51.8341 84.7149 51.7444C84.6684 51.6546 84.6046 51.5751 84.527 51.5104C84.4493 51.4458 84.3596 51.3973 84.263 51.3678C84.1664 51.3383 84.0648 51.3285 83.9643 51.3388C83.8638 51.3492 83.7664 51.3795 83.6779 51.4281C83.5893 51.4766 83.5113 51.5424 83.4485 51.6215L80.1909 55.5299L78.5053 53.8435C78.3624 53.7055 78.1711 53.6292 77.9724 53.6309C77.7738 53.6326 77.5838 53.7123 77.4433 53.8527C77.3029 53.9932 77.2232 54.1832 77.2215 54.3818C77.2198 54.5805 77.2961 54.7718 77.4341 54.9147L79.7068 57.1874C79.7813 57.2618 79.8704 57.3199 79.9685 57.3579C80.0666 57.396 80.1716 57.4132 80.2767 57.4084C80.3819 57.4036 80.4849 57.377 80.5791 57.3302C80.6734 57.2834 80.7569 57.2175 80.8243 57.1367L84.6121 52.5912Z" fill="#2031CE"/>
</svg>
