<svg width="36" height="64" viewBox="0 0 36 64" fill="none" xmlns="http://www.w3.org/2000/svg">
<path d="M20.1135 3.41216C18.7581 2.86261 17.2419 2.86261 15.8865 3.41216L12.6015 4.74416L26.9895 10.3392L32.0505 8.38466C31.8431 8.21249 31.6103 8.07335 31.3605 7.97216L20.1135 3.41216V3.41216ZM33 10.4292L19.125 15.7902V32.1747C19.461 32.1072 19.791 32.0067 20.1135 31.8762L31.3605 27.3162C31.845 27.1199 32.2598 26.7835 32.5519 26.3501C32.844 25.9166 33 25.4058 33 24.8832V10.4307V10.4292ZM16.875 32.1747V15.7902L3 10.4292V24.8847C3.0003 25.4071 3.15647 25.9175 3.44854 26.3507C3.74061 26.7839 4.15529 27.12 4.6395 27.3162L15.8865 31.8762C16.209 32.0067 16.539 32.1057 16.875 32.1762V32.1747ZM3.9495 8.38466L18 13.8132L23.8755 11.5422L9.561 5.97716L4.6395 7.97216C4.3845 8.07566 4.1535 8.21516 3.9495 8.38466V8.38466Z" fill="#2031CE"/>
<path fill-rule="evenodd" clip-rule="evenodd" d="M18 45.667C13.3977 45.667 9.66666 49.3981 9.66666 54.0003C9.66666 58.6026 13.3977 62.3337 18 62.3337C22.6023 62.3337 26.3333 58.6026 26.3333 54.0003C26.3333 49.3981 22.6023 45.667 18 45.667ZM21.6121 52.5912C21.6786 52.5152 21.7293 52.4266 21.761 52.3308C21.7928 52.2349 21.8051 52.1336 21.7972 52.0329C21.7892 51.9322 21.7612 51.8341 21.7148 51.7444C21.6684 51.6546 21.6045 51.5751 21.5269 51.5104C21.4493 51.4458 21.3596 51.3973 21.2629 51.3678C21.1663 51.3383 21.0648 51.3285 20.9643 51.3388C20.8638 51.3492 20.7664 51.3795 20.6778 51.4281C20.5892 51.4766 20.5113 51.5424 20.4485 51.6215L17.1909 55.5299L15.5053 53.8435C15.3624 53.7055 15.171 53.6292 14.9724 53.6309C14.7738 53.6326 14.5838 53.7123 14.4433 53.8527C14.3028 53.9932 14.2232 54.1832 14.2214 54.3818C14.2197 54.5805 14.2961 54.7718 14.4341 54.9147L16.7068 57.1874C16.7812 57.2618 16.8704 57.3199 16.9685 57.3579C17.0666 57.396 17.1716 57.4132 17.2767 57.4084C17.3818 57.4036 17.4848 57.377 17.5791 57.3302C17.6734 57.2834 17.7568 57.2175 17.8242 57.1367L21.6121 52.5912Z" fill="#2031CE"/>
</svg>
