<svg width="98" height="64" viewBox="0 0 98 64" fill="none" xmlns="http://www.w3.org/2000/svg">
<line x1="8.5" y1="55.5" x2="53.5" y2="55.5" stroke="#34C582" stroke-linecap="round" stroke-dasharray="6 6"/>
<g clip-path="url(#clip0_378_2950)">
<path d="M85.948 18.6021C84.9974 18.6021 84.103 18.0958 83.6193 17.2858L80.0024 11.2896L76.3911 17.2858C75.9018 18.1015 75.0074 18.6077 74.0568 18.6077C73.8036 18.6077 73.5505 18.574 73.3086 18.5008L65.6024 16.2958V26.3083C65.6024 27.1352 66.1649 27.8552 66.9636 28.0521L79.1249 31.0952C79.6986 31.2358 80.3005 31.2358 80.8686 31.0952L93.0411 28.0521C93.8399 27.8496 94.4024 27.1296 94.4024 26.3083V16.2958L86.6961 18.4952C86.4543 18.5683 86.2011 18.6021 85.948 18.6021ZM97.9068 12.2908L95.0099 6.50833C94.8355 6.15958 94.4586 5.95708 94.0705 6.0077L80.0024 7.80208L85.1605 16.3577C85.3743 16.7121 85.8018 16.8808 86.2011 16.7683L97.333 13.5902C97.8899 13.4271 98.1599 12.8083 97.9068 12.2908V12.2908ZM64.9949 6.50833L62.098 12.2908C61.8393 12.8083 62.1149 13.4271 62.6661 13.5846L73.798 16.7627C74.1974 16.8752 74.6249 16.7065 74.8386 16.3521L80.0024 7.80208L65.9286 6.0077C65.5405 5.9627 65.1693 6.15958 64.9949 6.50833V6.50833Z" fill="#2031CE"/>
</g>
<path fill-rule="evenodd" clip-rule="evenodd" d="M80 45.667C75.3977 45.667 71.6667 49.3981 71.6667 54.0003C71.6667 58.6026 75.3977 62.3337 80 62.3337C84.6023 62.3337 88.3334 58.6026 88.3334 54.0003C88.3334 49.3981 84.6023 45.667 80 45.667ZM83.6121 52.5912C83.6787 52.5152 83.7293 52.4266 83.7611 52.3308C83.7929 52.2349 83.8051 52.1336 83.7972 52.0329C83.7893 51.9322 83.7613 51.8341 83.7149 51.7444C83.6684 51.6546 83.6046 51.5751 83.527 51.5104C83.4493 51.4458 83.3596 51.3973 83.263 51.3678C83.1664 51.3383 83.0648 51.3285 82.9643 51.3388C82.8638 51.3492 82.7664 51.3795 82.6779 51.4281C82.5893 51.4766 82.5113 51.5424 82.4485 51.6215L79.1909 55.5299L77.5053 53.8435C77.3624 53.7055 77.1711 53.6292 76.9724 53.6309C76.7738 53.6326 76.5838 53.7123 76.4433 53.8527C76.3029 53.9932 76.2232 54.1832 76.2215 54.3818C76.2198 54.5805 76.2961 54.7718 76.4341 54.9147L78.7068 57.1874C78.7813 57.2618 78.8704 57.3199 78.9685 57.3579C79.0666 57.396 79.1716 57.4132 79.2767 57.4084C79.3819 57.4036 79.4849 57.377 79.5791 57.3302C79.6734 57.2834 79.7569 57.2175 79.8243 57.1367L83.6121 52.5912Z" fill="#2031CE"/>
<defs>
<clipPath id="clip0_378_2950">
<rect width="36" height="36" fill="white" transform="translate(62)"/>
</clipPath>
</defs>
</svg>
